# AST/ASF file generated using VICON BodyLanguage
# -----------------------------------------------
:version 1.10
:name VICON
:units
  mass 1.0
  length 0.45
  angle deg
:documentation
   .ast/.asf automatically generated from VICON data using
   VICON BodyBuilder and BodyLanguage model FoxedUp or BRILLIANT.MOD
:root
   order TX TY TZ RX RY RZ
   axis XYZ
   position 0 0 0  
   orientation 0 0 0 
:bonedata
  begin
     id 1 
     name lhipjoint
     direction 0.535335 -0.74333 0.401095 
     length 2.04549 
     axis 0 0 0  XYZ
  end
  begin
     id 2 
     name lfemur
     direction 0.34202 -0.939693 0  
     length 6.95643  
     axis 0 0 20  XYZ
    dof rx ry rz
    limits (-160.0 20.0)
           (-70.0 70.0)
           (-60.0 70.0)
  end
  begin
     id 3 
     name ltibia
     direction 0.34192 -0.939729 0   
     length 5.55969   
     axis 0 0 20   XYZ
    dof rx
    limits (-10.0 170.0)
  end
  begin
     id 4 
     name lfoot
     direction 0.216943 -0.596046 0.773088   
     length 2.27918   
     axis -90 7.62852e-016 20   XYZ
    dof rx rz
    limits (-45.0 90.0)
           (-70.0 20.0)
  end
  begin
     id 5 
     name ltoes
     direction 1.53519e-011 -4.21748e-011 1   
     length 1.05562   
     axis -90 7.62852e-016 20   XYZ
    dof rx
    limits (-90.0 20.0)
  end
  begin
     id 6 
     name rhipjoint
     direction -0.576368 -0.719173 0.38806   
     length 2.1142  
     axis 0 0 0  XYZ 
  end
  begin
     id 7 
     name rfemur
     direction -0.34202 -0.939693 0   
     length 7.07928   
     axis 0 0 -20   XYZ
    dof rx ry rz
    limits (-160.0 20.0)
           (-70.0 70.0)
           (-70.0 60.0)
  end
  begin
     id 8 
     name rtibia
     direction -0.34202 -0.939693 0   
     length 5.79974   
     axis 0 0 -20   XYZ
    dof rx
    limits (-10.0 170.0)
 end
 begin
     id 9 
     name rfoot
     direction -0.189288 -0.520065 0.832888   
     length 2.42173  
     axis -90 -7.62852e-016 -20   XYZ
    dof rx rz
    limits (-45.0 90.0)
           (-20.0 70.0)
  end
  begin
     id 10 
     name rtoes
     direction -1.53574e-011 -4.21658e-011 1   
     length 1.14469   
     axis -90 -7.62852e-016 -20   XYZ
    dof rx
    limits (-90.0 20.0)
  end
  begin
     id 11 
     name lowerback
     direction -0.00135702 0.993803 0.111144   
     length 1.91308   
     axis 0 0 0   XYZ
    dof rx ry rz
    limits (-20.0 45.0)
           (-30.0 30.0)
           (-30.0 30.0)
  end
  begin
     id 12 
     name upperback
     direction -0.0056745 0.999813 0.0184631   
     length 1.9212   
     axis 0 0 0   XYZ
    dof rx ry rz
    limits (-20.0 45.0)
           (-30.0 30.0)
           (-30.0 30.0)
  end
  begin
     id 13 
     name thorax
     direction -0.00733434 0.999426 -0.0330788   
     length 1.94196   
     axis 0 0 0   XYZ
    dof rx ry rz
    limits (-20.0 45.0)
           (-30.0 30.0)
           (-30.0 30.0)
  end
  begin
     id 14 
     name lowerneck
     direction 0.0563074 0.996944 -0.0541571   
     length 2.34257   
     axis 0 0 0   XYZ
    dof rx ry rz
    limits (-20.0 45.0)
           (-30.0 30.0)
           (-30.0 30.0)
  end
  begin
     id 15 
     name upperneck
     direction -0.0544519 0.976166 -0.210085   
     length 2.32506   
     axis 0 0 0   XYZ
    dof rx ry rz
    limits (-20.0 45.0)
           (-30.0 30.0)
           (-30.0 30.0)
  end
  begin
     id 16
     name head
     direction -0.0226035 0.997615 -0.0652205  
     length 2.3648  
     axis 0 0 0   XYZ
    dof rx ry rz
    limits (-20.0 45.0)
           (-30.0 30.0)
           (-30.0 30.0)
  end
  begin
     id 17 
     name lclavicle
     direction 0.92109 0.381297 -0.0787716  
     length 4.0487  
     axis 0 0 0   XYZ
    dof ry rz
    limits (-20.0 10.0)
           (0.0 20.0)
  end
  begin
     id 18 
     name lhumerus
     direction 1 -4.48986e-011 3.56724e-027   
     length 4.94991   
     axis 180 -30 -90   XYZ
    dof rx ry rz
    limits (-60.0 90.0)
           (-90.0 90.0)
           (-90.0 90.0)
  end
  begin
     id 19
     name lradius
     direction 1 -4.48981e-011 8.62147e-027   
     length 2.7606   
     axis 180 -30 -90   XYZ
    dof rx
    limits (-10.0 170.0)
  end
  begin
     id 20
     name lwrist
     direction 1 -4.48989e-011 1.59799e-026   
     length 1.3803   
     axis -1.17785e-014 90 90   XYZ
    dof ry
    limits (-180.0 0.0)
 end
  begin
     id 21 
     name lhand
     direction 1 -4.48896e-011 3.19599e-026   
     length 0.843936   
     axis -2.03931e-014 90 90   XYZ
    dof rx rz
    limits (-90.0 90.0)
           (-45.0 45.0)
  end
  begin
     id 22 
     name lfingers
     direction 1 -4.48887e-011 6.39197e-026   
     length 0.680403   
     axis -4.07862e-014 90 90   XYZ
    dof rx
    limits (0.0 90.0)
  end
  begin
     id 23
     name lthumb
     direction 0.707107 -6.348e-011 0.707107   
     length 0.976926   
     axis -90 45 2.85299e-015   XYZ
    dof rx rz
    limits (-45.0 45.0)
           (-45.0 45.0)
  end
  begin
     id 24 
     name rclavicle
     direction -0.951104 0.307692 -0.026953   
     length 4.21801  
     axis 0 0 0   XYZ 
    dof ry rz
    limits (-10.0 20.0)
           (-20.0 0.0)
  end
  begin
     id 25 
     name rhumerus
     direction -1 -4.4896e-011 -1.8171e-018  
     length 4.32982   
     axis 180 30 90   XYZ
    dof rx ry rz
    limits (-90.0 60.0)
           (-90.0 90.0)
           (-90.0 90.0)
  end
  begin
     id 26 
     name rradius
     direction -1 -4.48959e-011 8.25165e-027   
     length 3.20057   
     axis 180 30 90   XYZ
    dof rx
    limits (-10.0 170.0)
  end
  begin
     id 27 
     name rwrist
     direction -1 -4.48997e-011 1.59799e-026   
     length 1.60029   
     axis -1.17785e-014 -90 -90   XYZ
    dof ry
    limits (-180.0 0.0)
  end
  begin
     id 28
     name rhand
     direction -1 -4.49023e-011 3.19599e-026   
     length 0.960433   
     axis -2.03931e-014 -90 -90   XYZ
    dof rx rz
    limits (-90.0 90.0)
           (-45.0 45.0)
  end
  begin
     id 29
     name rfingers
     direction -1 -4.48802e-011 6.39197e-026   
     length 0.774326   
     axis -4.07862e-014 -90 -90   XYZ
    dof rx
    limits (0.0 90.0)
  end
  begin
     id 30
     name rthumb
     direction -0.707107 -6.34876e-011 0.707107   
     length 1.11178   
     axis -90 -45 -2.85299e-015   XYZ
    dof rx rz
    limits (-45.0 45.0)
           (-45.0 45.0)
  end
:hierarchy
  begin
    root lhipjoint rhipjoint lowerback
    lhipjoint lfemur
    lfemur ltibia
    ltibia lfoot
    lfoot ltoes
    rhipjoint rfemur
    rfemur rtibia
    rtibia rfoot
    rfoot rtoes
    lowerback upperback
    upperback thorax
    thorax lowerneck lclavicle rclavicle
    lowerneck upperneck
    upperneck head
    lclavicle lhumerus
    lhumerus lradius
    lradius lwrist
    lwrist lhand lthumb
    lhand lfingers
    rclavicle rhumerus
    rhumerus rradius
    rradius rwrist
    rwrist rhand rthumb
    rhand rfingers
end

#!OML:ASF C:\KaitlinTest1\Natural Motions\Nikki\Session 2\Nikki.ASF
:FULLY-SPECIFIED
:DEGREES
574
root -13.828 16.7367 5.00571 -318.809 92.9792 -328.253
lowerback -11.6074 -1.28762 2.15477
upperback -4.70956 -1.72934 -0.673321
thorax 1.49731 -0.80898 -2.12667
lowerneck -8.84542 -13.206 -8.1122
upperneck 5.16252 40.8707 5.65186
head 165.934 58.8817 -38.8951
rclavicle -2.55935e-014 -1.59028e-015
rhumerus -38.255 -28.5663 -79.6956
rradius 16.0235
rwrist 24.132
rhand -36.554 0.836798
rfingers 7.12502
rthumb -9.64434 -28.9224
lclavicle -2.55935e-014 -1.59028e-015
lhumerus -40.1024 18.8418 78.9215
lradius 19.3707
lwrist -43.2187
lhand -32.7642 2.91034
lfingers 7.12502
lthumb -5.98652 32.8058
rfemur -8.94152 -18.7383 21.2356
rtibia 11.5037
rfoot -9.58305 12.8402
rtoes 1.11319e-014
lfemur -15.4792 19.6467 -18.9368
ltibia 14.8482
lfoot -2.12032 -20.0176
ltoes -1.43125e-014
575
root -13.8271 16.7358 5.00546 -318.398 92.9932 -327.883
lowerback -11.6598 -1.28972 2.18055
upperback -4.699 -1.73616 -0.665637
thorax 1.53577 -0.811905 -2.13565
lowerneck -8.85689 -13.2078 -8.10318
upperneck 5.14173 40.8047 5.63228
head 165.857 58.9728 -38.9418
rclavicle 2.78299e-015 -5.1684e-015
rhumerus -38.2547 -28.6455 -79.6698
rradius 16.0128
rwrist 24.2105
rhand -36.5692 0.837338
rfingers 7.12502
rthumb -9.65902 -28.9212
lclavicle 2.78299e-015 -5.1684e-015
lhumerus -40.0833 18.6604 79.0403
lradius 19.4219
lwrist -43.0623
lhand -32.6842 3.07484
lfingers 7.12502
lthumb -5.90933 32.9724
rfemur -8.98074 -18.7192 21.275
rtibia 11.4897
rfoot -9.57296 12.8353
rtoes -1.59028e-014
lfemur -15.5313 19.6871 -18.9336
ltibia 14.8518
lfoot -2.10842 -20.0884
ltoes 6.36111e-015
576
root -13.8275 16.7361 5.00557 -318.632 92.9767 -328.117
lowerback -11.6404 -1.29584 2.15961
upperback -4.69407 -1.74202 -0.670641
thorax 1.53065 -0.814898 -2.12934
lowerneck -8.83836 -13.1801 -8.12864
upperneck 5.14005 40.8131 5.6385
head 165.956 58.9763 -38.875
rclavicle -1.92324e-014 -1.31198e-014
rhumerus -38.2797 -28.7293 -79.603
rradius 15.9756
rwrist 24.3495
rhand -36.545 0.885286
rfingers 7.12502
rthumb -9.63569 -28.8743
lclavicle -1.92324e-014 -1.31198e-014
lhumerus -40.091 18.7026 79.0096
lradius 19.4063
lwrist -43.0609
lhand -32.725 2.9803
lfingers 7.12502
lthumb -5.94871 32.8768
rfemur -8.98626 -18.7598 21.2626
rtibia 11.4789
rfoot -9.57733 12.8822
rtoes 5.08889e-014
lfemur -15.5307 19.6661 -18.9512
ltibia 14.8489
lfoot -2.12115 -20.0294
ltoes 4.77083e-015
577
root -13.8272 16.736 5.00498 -318.602 92.9888 -328.1
lowerback -11.6234 -1.32263 2.16299
upperback -4.71803 -1.7778 -0.617903
thorax 1.49626 -0.832674 -2.08002
lowerneck -8.80602 -13.154 -8.21227
upperneck 5.1459 40.8148 5.59331
head 165.851 58.9926 -38.9169
rclavicle 2.15433e-014 -1.19271e-015
rhumerus -38.3033 -28.498 -79.6081
rradius 16.0105
rwrist 24.258
rhand -36.5359 0.828551
rfingers 7.12502
rthumb -9.62693 -28.9315
lclavicle 2.15433e-014 -1.19271e-015
lhumerus -40.1976 18.8249 79.0123
lradius 19.4208
lwrist -43.0877
lhand -32.745 3.03365
lfingers 7.12502
lthumb -5.968 32.9296
rfemur -8.99679 -18.7571 21.2764
rtibia 11.4786
rfoot -9.57033 12.8673
rtoes 4.77083e-014
lfemur -15.5455 19.6585 -18.9435
ltibia 14.8446
lfoot -2.1018 -20.0544
ltoes 4.29375e-014
578
root -13.826 16.7365 5.00437 -318.586 92.9752 -328.092
lowerback -11.6365 -1.30794 2.16063
upperback -4.68656 -1.75864 -0.669346
thorax 1.53549 -0.823248 -2.13064
lowerneck -8.82886 -13.1552 -8.12644
upperneck 5.14247 40.8278 5.65128
head 166.021 58.986 -38.836
rclavicle 1.45858e-014 -7.95139e-016
rhumerus -38.2934 -28.5957 -79.6848
rradius 16.0239
rwrist 24.237
rhand -36.5465 0.851664
rfingers 7.12502
rthumb -9.63714 -28.9079
lclavicle 1.45858e-014 -7.95139e-016
lhumerus -40.1489 18.8082 78.9282
lradius 19.4022
lwrist -43.1352
lhand -32.7389 2.91166
lfingers 7.12502
lthumb -5.96212 32.8078
rfemur -8.99147 -18.7151 21.2641
rtibia 11.469
rfoot -9.57199 12.8498
rtoes 3.57812e-014
lfemur -15.5411 19.6462 -18.9528
ltibia 14.8372
lfoot -2.13125 -20.0207
ltoes -1.59028e-015
579
root -13.8253 16.737 5.00394 -318.403 92.9796 -327.92
lowerback -11.6185 -1.30655 2.1703
upperback -4.69984 -1.75695 -0.668527
thorax 1.51162 -0.822774 -2.1343
lowerneck -8.78628 -13.2064 -8.08548
upperneck 5.10414 40.5916 5.59067
head 165.714 59.1733 -38.9826
rclavicle 1.01877e-014 4.37326e-015
rhumerus -38.3425 -28.5937 -79.6691
rradius 16.0645
rwrist 24.2567
rhand -36.5044 0.83632
rfingers 7.12502
rthumb -9.59646 -28.9251
lclavicle 1.01877e-014 4.37326e-015
lhumerus -40.1781 18.7166 78.9786
lradius 19.4374
lwrist -42.9944
lhand -32.681 2.95405
lfingers 7.12502
lthumb -5.90622 32.8517
rfemur -9.00216 -18.7467 21.2799
rtibia 11.4641
rfoot -9.56427 12.8755
rtoes 8.50798e-014
lfemur -15.5458 19.6459 -18.9463
ltibia 14.8327
lfoot -2.122 -20.0323
ltoes 4.92986e-014
580
root -13.8246 16.7378 5.00384 -318.402 92.9808 -327.915
lowerback -11.6022 -1.31528 2.16236
upperback -4.69507 -1.76779 -0.669412
thorax 1.50744 -0.82831 -2.13172
lowerneck -8.77376 -13.1909 -8.07155
upperneck 5.10582 40.5848 5.60139
head 165.722 59.2413 -38.9899
rclavicle 2.25372e-014 3.97569e-015
rhumerus -38.3627 -28.5721 -79.6625
rradius 16.0581
rwrist 24.3259
rhand -36.4847 0.87984
rfingers 7.12502
rthumb -9.57746 -28.8825
lclavicle 2.25372e-014 3.97569e-015
lhumerus -40.2034 18.8451 78.8894
lradius 19.3809
lwrist -43.0897
lhand -32.727 2.88519
lfingers 7.12502
lthumb -5.95064 32.7816
rfemur -8.99384 -18.721 21.2753
rtibia 11.4656
rfoot -9.57849 12.8525
rtoes 3.81667e-014
lfemur -15.537 19.6306 -18.9403
ltibia 14.8236
lfoot -2.09823 -20.0085
ltoes -3.18055e-015
581
root -13.8242 16.7371 5.00399 -318.564 92.9815 -328.088
lowerback -11.5837 -1.32464 2.13316
upperback -4.70041 -1.77677 -0.662573
thorax 1.49264 -0.832671 -2.10868
lowerneck -8.77015 -13.1881 -8.05782
upperneck 5.11694 40.6067 5.61134
head 165.7 59.2587 -39.0167
rclavicle -1.08835e-014 -1.59028e-015
rhumerus -38.3885 -28.5452 -79.6568
rradius 16.0895
rwrist 24.3263
rhand -36.4524 0.89235
rfingers 7.12502
rthumb -9.54636 -28.8714
lclavicle -1.08835e-014 -1.59028e-015
lhumerus -40.2398 18.7909 78.9223
lradius 19.398
lwrist -43.0745
lhand -32.6579 2.93231
lfingers 7.12502
lthumb -5.88395 32.8306
rfemur -9.00661 -18.7215 21.2729
rtibia 11.4758
rfoot -9.59789 12.8281
rtoes -7.71285e-014
lfemur -15.5408 19.6341 -18.9519
ltibia 14.8121
lfoot -2.10641 -20.0196
ltoes -1.11319e-014
582
root -13.8239 16.7376 5.00366 -318.431 92.9841 -327.972
lowerback -11.5904 -1.34881 2.13574
upperback -4.71907 -1.80971 -0.602664
thorax 1.47711 -0.84864 -2.05185
lowerneck -8.74218 -13.1829 -8.13969
upperneck 5.11726 40.5657 5.53889
head 165.446 59.3061 -39.1437
rclavicle -2.36305e-014 -1.47101e-014
rhumerus -38.4002 -28.3518 -79.6145
rradius 16.0998
rwrist 24.2623
rhand -36.4131 0.877089
rfingers 7.12502
rthumb -9.50841 -28.8884
lclavicle -2.36305e-014 -1.47101e-014
lhumerus -40.3567 19.0385 78.8844
lradius 19.4091
lwrist -43.2061
lhand -32.7137 2.82842
lfingers 7.12502
lthumb -5.93782 32.7252
rfemur -9.033 -18.6965 21.285
rtibia 11.487
rfoot -9.59399 12.8044
rtoes -4.69132e-014
lfemur -15.5557 19.6234 -18.9508
ltibia 14.8013
lfoot -2.08588 -20.0079
ltoes -1.59028e-014
583
root -13.8229 16.7371 5.0032 -318.324 92.9853 -327.876
lowerback -11.5819 -1.35101 2.13635
upperback -4.73082 -1.81201 -0.599832
thorax 1.46017 -0.849911 -2.04909
lowerneck -8.71822 -13.1831 -8.12066
upperneck 5.13164 40.5769 5.55283
head 165.441 59.3045 -39.1484
rclavicle 1.45361e-014 7.55382e-015
rhumerus -38.4404 -28.2547 -79.6494
rradius 16.1536
rwrist 24.1644
rhand -36.4252 0.920164
rfingers 7.12502
rthumb -9.5201 -28.8448
lclavicle 1.45361e-014 7.55382e-015
lhumerus -40.376 18.9517 78.9437
lradius 19.4117
lwrist -43.0763
lhand -32.7119 2.87999
lfingers 7.12502
lthumb -5.93609 32.7768
rfemur -9.0357 -18.6703 21.2888
rtibia 11.4812
rfoot -9.58234 12.7819
rtoes 3.73715e-014
lfemur -15.5639 19.622 -18.9529
ltibia 14.8112
lfoot -2.07612 -19.9864
ltoes 7.95139e-015
584
root -13.8226 16.7367 5.00287 -318.647 92.9904 -328.216
lowerback -11.5958 -1.34823 2.1159
upperback -4.7031 -1.80658 -0.645174
thorax 1.49609 -0.847089 -2.08486
lowerneck -8.76322 -13.2174 -8.00161
upperneck 5.11815 40.533 5.58705
head 165.43 59.3464 -39.1788
rclavicle -7.65321e-015 -3.18055e-015
rhumerus -38.4185 -28.4363 -79.6601
rradius 16.1254
rwrist 24.3005
rhand -36.3706 0.86591
rfingers 7.12502
rthumb -9.46736 -28.9014
lclavicle -7.65321e-015 -3.18055e-015
lhumerus -40.3229 18.8652 78.9113
lradius 19.4248
lwrist -43.0816
lhand -32.7326 2.82305
lfingers 7.12502
lthumb -5.95604 32.7193
rfemur -9.04727 -18.7184 21.2839
rtibia 11.4739
rfoot -9.58428 12.8296
rtoes -5.00937e-014
lfemur -15.5762 19.6033 -18.9687
ltibia 14.8085
lfoot -1.9968 -20.023
ltoes 3.18055e-015
585
root -13.822 16.7359 5.00232 -318.496 93.0068 -328.046
lowerback -11.5405 -1.34439 2.13827
upperback -4.71669 -1.80253 -0.650411
thorax 1.45112 -0.846086 -2.1006
lowerneck -8.73967 -13.1837 -8.01251
upperneck 5.17814 40.7519 5.66571
head 165.746 59.108 -39.0009
rclavicle -3.00662e-015 -4.77083e-015
rhumerus -38.4605 -28.3452 -79.7081
rradius 16.1728
rwrist 24.089
rhand -36.3816 0.845509
rfingers 7.12502
rthumb -9.47799 -28.9213
lclavicle -3.00662e-015 -4.77083e-015
lhumerus -40.3664 18.7882 78.9305
lradius 19.4418
lwrist -43.0532
lhand -32.6597 2.79916
lfingers 7.12502
lthumb -5.88567 32.6974
rfemur -9.01496 -18.6979 21.292
rtibia 11.4691
rfoot -9.58229 12.7975
rtoes 3.89618e-014
lfemur -15.5577 19.5885 -18.9438
ltibia 14.8114
lfoot -2.10869 -19.9834
ltoes 4.77083e-015
